<svg width="1280" height="1280" viewBox="0 0 1280 1280" fill="none" xmlns="http://www.w3.org/2000/svg">
<path fill-rule="evenodd" clip-rule="evenodd" d="M1197.82 83.3401L1197.81 83.3278C1197.69 83.1983 1197.57 83.0891 1197.44 83H1197.72C1197.88 83 1198 83.1243 1198 83.2777C1198 83.367 1197.88 83.4069 1197.82 83.3401ZM83 1196.72C83 1196.63 83.1191 1196.59 83.1785 1196.66L83.1895 1196.67C83.3065 1196.8 83.4309 1196.91 83.5628 1197H83.2775C83.1242 1197 83 1196.88 83 1196.72ZM1195.45 83C1195.3 83 1195.15 83.0304 1195.01 83.0979L1195.89 83H1195.45ZM85.9849 1196.9C85.8502 1196.97 85.7004 1197 85.5497 1197H85.1087L85.9849 1196.9ZM716.277 821.083C707.897 1082.64 912.487 652.69 1057.98 346.937C1100.44 257.697 1137.87 179.038 1163.51 131.239C1030.16 293.205 554.223 786.618 564.723 458.917C573.103 197.363 368.513 627.31 223.021 933.063C180.556 1022.3 143.126 1100.96 117.495 1148.76C250.845 986.795 726.777 493.382 716.277 821.083Z" fill="url(#paint0_linear_1_48)"/>
<defs>
<linearGradient id="paint0_linear_1_48" x1="1171" y1="122" x2="113.896" y2="1156.37" gradientUnits="userSpaceOnUse">
<stop stop-color="#6DEFF7"/>
<stop offset="0.498457" stop-color="#AF5FDA"/>
<stop offset="1" stop-color="#F82697"/>
</linearGradient>
</defs>
</svg>
